<svg width="112" height="112" viewBox="0 0 112 112" fill="none" xmlns="http://www.w3.org/2000/svg">
<g clip-path="url(#clip0_22194_2236)">
<path d="M96.2091 50.5634C88.2991 47.1567 81.3808 42.49 75.4425 36.5575C69.51 30.625 64.8375 23.7009 61.4366 15.7909C60.13 12.7575 59.08 9.64252 58.275 6.44585C58.0125 5.40169 57.0733 4.66669 56 4.66669C54.9266 4.66669 53.9875 5.40169 53.725 6.44585C52.92 9.64252 51.87 12.7517 50.5633 15.7909C47.1566 23.7009 42.49 30.625 36.5575 36.5575C30.625 42.49 23.7008 47.1625 15.7908 50.5634C12.7575 51.87 9.64246 52.92 6.44579 53.725C5.40163 53.9875 4.66663 54.9267 4.66663 56C4.66663 57.0734 5.40163 58.0125 6.44579 58.275C9.64246 59.08 12.7516 60.13 15.7908 61.4367C23.7008 64.8434 30.6191 69.51 36.5575 75.4425C42.49 81.375 47.1625 88.2992 50.5633 96.2092C51.87 99.2425 52.92 102.358 53.725 105.554C53.9875 106.598 54.9266 107.333 56 107.333C57.0733 107.333 58.0125 106.598 58.275 105.554C59.08 102.358 60.13 99.2483 61.4366 96.2092C64.8433 88.2992 69.51 81.3809 75.4425 75.4425C81.375 69.51 88.2991 64.8375 96.2091 61.4367C99.2425 60.13 102.357 59.08 105.554 58.275C106.598 58.0125 107.333 57.0734 107.333 56C107.333 54.9267 106.598 53.9875 105.554 53.725C102.357 52.92 99.2483 51.87 96.2091 50.5634Z" fill="url(#paint0_linear_22194_2236)"/>
</g>
<defs>
<linearGradient id="paint0_linear_22194_2236" x1="37.2633" y1="71.7967" x2="83.7083" y2="32.6375" gradientUnits="userSpaceOnUse">
<stop stop-color="#346BF1"/>
<stop offset="0.37" stop-color="#3186FF"/>
<stop offset="0.78" stop-color="#4FA0FF"/>
</linearGradient>
<clipPath id="clip0_22194_2236">
<rect width="112" height="112" fill="white"/>
</clipPath>
</defs>
</svg>
