<svg width="219" height="218" fill="none" xmlns="http://www.w3.org/2000/svg"><path d="M164.016 27.943H98.028v41.286h65.988V27.943Z" fill="#FFDCC3" stroke="#F2B8B5" stroke-width=".806" stroke-linecap="round" stroke-linejoin="round"/><path d="M87.266 28.12H20.515v41.11h66.751V28.12Z" stroke="#1F1F1F" stroke-width=".806" stroke-linecap="round" stroke-linejoin="round"/><path d="M29.782 101.593c5.557 0 8.41 7.001 11.606 20.408h49.939" fill="#fff"/><path d="M29.782 101.593c5.557 0 8.41 7.001 11.606 20.408h49.939" stroke="#1F1F1F" stroke-width=".643" stroke-linecap="round" stroke-linejoin="round"/><path d="M46.789 146.848H35.19" stroke="#1F1F1F" stroke-width=".806" stroke-linecap="round" stroke-linejoin="round"/><path d="m39.196 171.155-5.06 19.744c-.774 3.15 2.428 3.882 3.916-.016l7.26-19.722-6.116-.006Z" fill="#F8FAFD" stroke="#1F1F1F" stroke-width=".806" stroke-linecap="round" stroke-linejoin="round"/><path d="M20.476 193.601h53.09" stroke="#1F1F1F" stroke-width=".806" stroke-linecap="round" stroke-linejoin="round"/><path d="m39.197 171.155-1.221 4.765 6.141-1.367 1.194-3.398h-6.114Z" fill="#1F1F1F" stroke="#1F1F1F" stroke-width=".806" stroke-linecap="round" stroke-linejoin="round"/><path d="m178.387 171.155 5.059 19.744c.774 3.15-2.428 3.882-3.916-.016l-7.259-19.722 6.116-.006Z" fill="#fff" stroke="#1F1F1F" stroke-width=".806" stroke-linecap="round" stroke-linejoin="round"/><path d="m178.385 171.155 1.221 4.765-6.141-1.367-1.194-3.398h6.114Z" fill="#1F1F1F" stroke="#1F1F1F" stroke-width=".806" stroke-linecap="round" stroke-linejoin="round"/><path d="M109.381 89.825c56.323 0 66.811 4.687 70.397 13.195l6.746 18.244c6.747 0 13.915 1.539 11.762 13.669l-8.283 36.223H28.759l-8.283-36.223c-2.154-12.13 5.015-13.669 11.762-13.669l6.746-18.25c3.585-8.502 14.074-13.189 70.397-13.189Z" fill="#FFDCC3"/><path d="M186.525 121.264c-6.966 0-10.543 8.775-14.548 25.58h-62.596" stroke="#1F1F1F" stroke-width=".806" stroke-linecap="round" stroke-linejoin="round"/><path d="M132.389 83.223s35.326-12.448 40.906-1.064c5.58 11.384-4.226 31.921-4.226 31.921l-2.515-2.457-2.575 29.391-23.286-33.054c1.817-3.882 1.515-11.757 2.128-14.522l-8.126 3.193-2.306-13.408Z" fill="#fff" stroke="#1F1F1F" stroke-width=".806" stroke-linecap="round" stroke-linejoin="round"/><path d="M171.977 146.848h11.597M32.046 121.264c6.965 0 10.543 8.775 14.548 25.58h62.595M46.596 146.848H34.998" stroke="#1F1F1F" stroke-width=".806" stroke-linecap="round" stroke-linejoin="round"/><path d="M132.389 83.223c2.216-.734 4.429 12.484 2.322 13.408-2.107.923-4.98-12.533-2.322-13.408Z" fill="#1F1F1F" stroke="#1F1F1F" stroke-width=".806" stroke-linecap="round" stroke-linejoin="round"/><path d="m132.39 83.223-27.749 8.75 1.234 4.212 29.889-4.94s-.747-8.887-3.374-8.022Z" fill="#8C4819" stroke="#8C4819" stroke-width=".806" stroke-linecap="round" stroke-linejoin="round"/><path d="M41.643 166.639s8.095-10.212 18.638-10.212c10.543 0 23.826 21.075 20.031 45.75 0 0 5.06-12.888 22.982-8.577" stroke="#1F1F1F" stroke-width=".806" stroke-linecap="round" stroke-linejoin="round"/><path d="M146.047 129.134H89.163v49.538h56.884v-49.538Z" fill="#fff" stroke="#1F1F1F" stroke-width=".806" stroke-linecap="round" stroke-linejoin="round"/><path d="M196.068 84.714h-7.591v7.66h7.591v-7.66Z" fill="#1EA446" stroke="#1EA446" stroke-width=".806" stroke-linecap="round" stroke-linejoin="round"/><path d="m125.985 100.087-8.381-24.418H83.158l8.382 24.418h34.445ZM154.028 99.467c3.009-4.026 17.027 10.207 15.049 14.613-1.977 4.405-17.448-9.436-15.049-14.613ZM152.272 140.854s5.977 2.101 9.773 2.101c3.796 0 1.902-7.811-3.932-14.618l-5.841 12.517Z" fill="#1F1F1F" stroke="#1F1F1F" stroke-width=".806" stroke-linecap="round" stroke-linejoin="round"/><path d="m52.639 129.133 17.98 12.906 39.74-43.23-10.253-10.93-47.467 41.254Z" fill="#7FCFFF" stroke="#4C8DF6" stroke-width=".806" stroke-miterlimit="10"/><path d="M129.258 93.768s3.676 3.556 7.739 1.962c0 0 15.637 16.718 23.369 14.093 3.935-1.63 5.913-2.978 5.913-2.978s-4.45-5.995-9.52-7.885l-3.554 1.89-17.431-9.61c-3.585-2.13-5.974-.569-7.379.495l-4.644 3.831c-1.896 1.418-.069 1.43.494 1.153.563-.278 5.013-2.951 5.013-2.951Z" fill="#8C4819" stroke="#8C4819" stroke-width=".806" stroke-linecap="round" stroke-linejoin="round"/><path d="m90.432 140.626-19.621-7.811s22.608-48.101 36.225-48.101c13.618 0 39.693 28.302 51.08 43.623 0 0-3.794 18.514-17.553 18.514-13.758 0-32.892-37.027-32.892-37.027l-17.24 30.802Z" fill="#7FCFFF" stroke="#7FCFFF" stroke-width=".806" stroke-miterlimit="10"/><path d="M52.638 129.136c4.129-4.062 21.67 8.896 17.978 12.903-4.254 4.63-21.09-9.66-17.978-12.903Z" fill="#1F1F1F" stroke="#1F1F1F" stroke-width=".806" stroke-linecap="round" stroke-linejoin="round"/><path d="M61.688 130.699c-9.421 9.553-26.008 4.296-28.82 6.64l15.45 9.505h12.383c2.515-5.467 7.385-10.413 7.768-10.882.002.006-3.117-3.546-6.781-5.263Z" fill="#fff" stroke="#1F1F1F" stroke-width=".806" stroke-linecap="round" stroke-linejoin="round"/><path d="m98.154 126.825 11.42-20.726" stroke="#1F1F1F" stroke-width=".806" stroke-linecap="round" stroke-linejoin="round"/><path d="M70.81 132.804c2.304-4.686 22.362 3.515 19.62 7.811-2.74 4.296-21.927-2.064-19.62-7.811Z" fill="#1F1F1F" stroke="#1F1F1F" stroke-width=".806" stroke-linecap="round" stroke-linejoin="round"/><path d="M57.75 146.844c1.476-3.71 16.126-4.161 19.586-15.096a32.073 32.073 0 0 1 8.17 2.99s-2.455 4.522-3.016 12.106H57.75Z" fill="#fff" stroke="#1F1F1F" stroke-width=".806" stroke-linecap="round" stroke-linejoin="round"/><path d="m42.27 131.399 3.989-12.425c1.687-5.001 4.218-5.639 7.801-5.639h13.285" stroke="#1F1F1F" stroke-width=".806" stroke-linecap="round" stroke-linejoin="round"/><path d="m48.319 115.199-8.707 10.818 2.662 5.382 3.99-12.426a10.562 10.562 0 0 1 2.055-3.774Z" fill="#1F1F1F" stroke="#1F1F1F" stroke-width=".806" stroke-linecap="round" stroke-linejoin="round"/><path d="M142.829 93.438c.737-4.895 3.829-8.441 7.625-10.64l-7.625 10.64Z" fill="#fff"/><path d="M142.829 93.438c.737-4.895 3.829-8.441 7.625-10.64M154.03 99.466l8.859-11.845" stroke="#1F1F1F" stroke-width=".806" stroke-linecap="round" stroke-linejoin="round"/><path d="M154.314 77.867s-1.26 5.25 2.852 5.57c4.111.317 12.791-4.492 12.791-4.492s-2.363-.976-3.676-1.172l-.519-3.647c-.238-2.047 3.005-3.591 3.821-5.613 1.355-3.165-4.084-7.527-8.354-2.632-2.874 3.67-3.576 7.06.658 6.942l-.943 4.54s-5.29.315-6.63.504Z" fill="#8C4819" stroke="#8C4819" stroke-width=".806" stroke-linecap="round" stroke-linejoin="round"/><path d="M161.58 65.496c3.928 1.198 2.647 5.486 4.915 6.673.878-.96 3.272-2.763 3.272-4.366 0-3.439-4.327-6.097-8.187-2.306Z" fill="#202124" stroke="#1F1F1F" stroke-width=".806" stroke-linecap="round" stroke-linejoin="round"/><path d="M110.358 129.186h35.687v49.488" fill="#fff"/><path d="M110.358 129.186h35.687v49.488" stroke="#1F1F1F" stroke-width=".806" stroke-linecap="round" stroke-linejoin="round"/><path d="M168.61 64.891s11.085-24.692 21.579-18.595c8.02 4.657-13.96 13.263-21.579 18.595Z" fill="#202124" stroke="#1F1F1F" stroke-width=".806" stroke-linecap="round" stroke-linejoin="round"/><path d="m90.434 140.625 10.374-11.438-3.945-.053-6.43 11.491Z" fill="#1F1F1F" stroke="#1F1F1F" stroke-width=".806" stroke-linecap="round" stroke-linejoin="round"/><path d="M75.594 123.299s8.804-16.34 13.35-22.456M52.639 129.133l9.055-7.869" stroke="#1F1F1F" stroke-width=".806" stroke-linecap="round" stroke-linejoin="round"/><path d="M140.899 37.237h-20.161c-1.642 0-2.973 1.344-2.973 3.001v.002c0 1.658 1.331 3.002 2.973 3.002h20.161c1.643 0 2.974-1.344 2.974-3.002v-.002c0-1.657-1.331-3.001-2.974-3.001Z" fill="#fff" stroke="#1F1F1F" stroke-width=".806" stroke-miterlimit="10"/><path d="M120.904 41.324c.593 0 1.074-.485 1.074-1.084 0-.598-.481-1.084-1.074-1.084-.593 0-1.074.486-1.074 1.084 0 .599.481 1.084 1.074 1.084Z" fill="#EA4335" stroke="#EA4335" stroke-width=".806" stroke-miterlimit="10"/><path d="M140.899 45.632h-20.161c-1.642 0-2.973 1.344-2.973 3.002v.002c0 1.657 1.331 3 2.973 3h20.161c1.643 0 2.974-1.343 2.974-3v-.003c0-1.657-1.331-3-2.974-3Z" fill="#fff" stroke="#0B57D0" stroke-width=".806" stroke-miterlimit="10"/><path d="M120.904 49.717c.593 0 1.074-.485 1.074-1.084 0-.598-.481-1.083-1.074-1.083-.593 0-1.074.485-1.074 1.083 0 .599.481 1.084 1.074 1.084Z" fill="#0B57D0" stroke="#0B57D0" stroke-width=".806" stroke-miterlimit="10"/><path d="M140.899 54.027h-20.161c-1.642 0-2.973 1.344-2.973 3.001v.002c0 1.658 1.331 3.001 2.973 3.001h20.161c1.643 0 2.974-1.343 2.974-3v-.003c0-1.657-1.331-3.001-2.974-3.001Z" fill="#fff" stroke="#1F1F1F" stroke-width=".806" stroke-miterlimit="10"/><path d="M120.904 58.111a1.08 1.08 0 0 0 1.074-1.083 1.08 1.08 0 0 0-1.074-1.084 1.08 1.08 0 0 0-1.074 1.084 1.08 1.08 0 0 0 1.074 1.083Z" fill="#FFBB29"/><path d="m145.857 56.667-11.402-9.117v14.37l4.007-3.9 2.347 4.778 1.654-.828-2.32-4.717 5.714-.586Z" fill="#1F1F1F" stroke="#1F1F1F" stroke-width=".806" stroke-miterlimit="10"/><path d="m113.565 171.156 1.229-7.203s8.747 5.256 10.299-1.237c1.552-6.492.801-9.597.801-9.597l2.158-.434c-5.764-3.675-4.658-14.118-14.593-13.069-6.611 1.265-13.223 8.283-5.655 19.244l-4.712 6.787 10.473 5.509Z" fill="#C99069" stroke="#C99069" stroke-width=".806" stroke-linecap="round" stroke-linejoin="round"/><path d="M125.895 153.119c-4.559.646-8.68 4.899-9.889 7.867l-1.604-7.588s5.977-7.297-2.405-7.288l10.487-3.794c2.923-1.189-.099-6.682-4.331-6.239-4.231.444-6.729 4.181-10.183 5.417-5.692 2.037-8.014 10.398-.166 17.366l2.734-2.929s-4.03-.848-3.059-4.156c.729-2.48 4.758-2.538 5.317 1.322.559 3.861.039 9.883 1.999 10.855 1.96.973 12.591 8.657 11.1-10.833Z" fill="#202124" stroke="#1F1F1F" stroke-width=".806" stroke-linecap="round" stroke-linejoin="round"/><path d="M33.892 57.508c2.778 1.256 6.741 2.636 10.783 2.636 4.566 0 8.229-1.92 10.376-3.401 6.886 1.562 7.74 2.308 7.74 2.308l12.307-20.816 8.867 4.97S73.73 69.193 67.235 69.193H20.973s.095-5.338 12.919-11.685Z" fill="#C2E7FF"/><path d="M33.891 57.508a80.885 80.885 0 0 1 4.745-2.148c3.416-1.726 4.603-7.59 4.603-7.59h4.063s-.457 7.15 7.064 8.809l.69.152c-2.147 1.482-5.804 3.402-10.376 3.402-4.048.011-8.01-1.37-10.789-2.625Z" fill="#FF8B69" stroke="#FF8B69" stroke-width=".806" stroke-linecap="round" stroke-linejoin="round"/><path d="M75.102 38.231 60.559 62.843" stroke="#1F1F1F" stroke-width=".806" stroke-linecap="round" stroke-linejoin="round"/><path d="M41.565 46.83c0-8.696-12.801-8.241-12.801 0-.002 7.763 12.8 9.277 12.8 0Z" fill="#202124" stroke="#1F1F1F" stroke-width=".806" stroke-linecap="round" stroke-linejoin="round"/><path d="M42.243 50.869s5.847 2.51 8.497 4.167c0 0-2.857-2.074-3.33-5.6l-4.49-.438s-.472 1.412-.677 1.87Z" fill="#1F1F1F" stroke="#1F1F1F" stroke-width=".806" stroke-linecap="round" stroke-linejoin="round"/><path d="M51.627 43.58c0 11.212-12.706 9.373-12.706-.46 0-8.05 12.706-8.741 12.706.46Z" fill="#FF8B69" stroke="#FF8B69" stroke-width=".806" stroke-linecap="round" stroke-linejoin="round"/><path d="M53.45 44.072h-5.64s-1.963-4.173-1.951-4.058c.011.115-1.004 4.058-1.004 4.058h-5.882s-1.117-7.192 6.31-7.192c7.027 0 8.166 7.192 8.166 7.192Z" fill="#202124" stroke="#1F1F1F" stroke-width=".806" stroke-linecap="round" stroke-linejoin="round"/><path d="M55.05 69.189s-1.886-5.37-4.906-5.37c-3.02 0-5.677 5.37-5.677 5.37H55.05Z" fill="#1F1F1F" stroke="#1F1F1F" stroke-width=".806" stroke-linecap="round" stroke-linejoin="round"/><path d="m50.144 63.82-19.826-1.84" stroke="#1F1F1F" stroke-width=".806" stroke-linecap="round" stroke-linejoin="round"/><path d="m47.588 64.981 4.881 1.523c2.632.709 7.132.674 8.957 2.685h-16.96s.775-1.869 3.122-4.208Z" fill="#FF8B69" stroke="#FF8B69" stroke-width=".806" stroke-linecap="round" stroke-linejoin="round"/><path d="M83.967 43.2c1.368-2.76-7.606-7.103-8.867-4.969-1.262 2.134 7.385 6.925 8.867 4.97Z" fill="#1F1F1F" stroke="#1F1F1F" stroke-width=".806" stroke-linecap="round" stroke-linejoin="round"/><path d="m76.03 40.477 1.523-11.79c.173-1.21 1.14-2.07 1.483-.288.342 1.783.855 5.53.855 5.53l2.393-8.463c.34-1.61 1.48-2.185 1.366-.345-.114 1.84-1.428 7.1-1.428 7.1l3.59-7.337c.512-1.091 1.423-.632.967.461-.457 1.094-2.672 7.36-2.672 7.36l4.042-6.089c.569-1.15 1.652-.747 1.251.46-.4 1.206-4.386 7.878-4.386 7.878l3.419-3.45c.683-.976 1.424.057.399 1.265-1.026 1.21-5.611 9.024-8.25 10.434 0 0-2.775-.975-4.551-2.726Z" fill="#FF8B69" stroke="#FF8B69" stroke-width=".806" stroke-linecap="round" stroke-linejoin="round"/><path d="M79.888 33.93s3.738 2.386 2.364 5.738l-2.364-5.739Z" fill="#FF8B69"/><path d="M79.888 33.93s3.738 2.386 2.364 5.739" stroke="#1F1F1F" stroke-width=".806" stroke-linecap="round" stroke-linejoin="round"/><path d="M27.383 61.289a.655.655 0 0 0-.651-.658.655.655 0 0 0-.651.658v4.788c0 .363.291.658.651.658.36 0 .651-.295.651-.658v-4.788ZM24.774 62.734a.655.655 0 0 0-.65-.658.655.655 0 0 0-.652.658v1.896c0 .363.292.658.651.658.36 0 .651-.295.651-.658v-1.896ZM30.065 62.734a.655.655 0 0 0-.651-.658.655.655 0 0 0-.651.658v1.896c0 .363.291.658.65.658.36 0 .652-.295.652-.658v-1.896Z" fill="#FFBB29" stroke="#FFBB29" stroke-width=".806" stroke-linecap="round" stroke-linejoin="round"/><path d="M20.973 69.19h66.293" stroke="#1F1F1F" stroke-width=".806" stroke-linecap="round" stroke-linejoin="round"/><path d="M164.014 27.943H98.028V69.23" stroke="#1F1F1F" stroke-width=".806" stroke-miterlimit="10"/><path d="m141.573 163.773-26.616 8.344-.495 6.557 19.219.041 6.87-1.947 1.022-12.995Z" fill="#fff" stroke="#1F1F1F" stroke-width=".806" stroke-linecap="round" stroke-linejoin="round"/><path d="m76.03 40.477 1.523-11.79c.173-1.21 1.14-2.07 1.483-.288.342 1.783.855 5.53.855 5.53" fill="#FF8B69"/><path d="m76.03 40.477 1.523-11.79c.173-1.21 1.14-2.07 1.483-.288.342 1.783.855 5.53.855 5.53M125.985 93.717l2.399-1.982c1.405-1.064 3.795-2.624 7.38-.496l10.875 6.007" stroke="#1F1F1F" stroke-width=".806" stroke-linecap="round" stroke-linejoin="round"/><path d="M195.561 165.282h-42.564v20.41h42.564v-20.41Z" fill="#FFBB29" stroke="#FFBB29" stroke-width=".806" stroke-linecap="round" stroke-linejoin="round"/><path d="M163.108 160.904c-.025.028-2.345 6.249-2.345 6.249-.387.728-1.2.115-1.018-.902.182-1.018 1.668-6.386 1.668-6.386l1.695 1.039Z" fill="#C99069" stroke="#C99069" stroke-width=".806" stroke-linecap="round" stroke-linejoin="round"/><path d="M164.608 161.453c-.025.027-2.709 6.934-2.709 6.934-.387.73-1.197.117-1.016-.9.182-1.018 1.846-6.874 1.846-6.874l1.879.84Z" fill="#C99069" stroke="#C99069" stroke-width=".806" stroke-linecap="round" stroke-linejoin="round"/><path d="M141.573 163.772c2.203-.516.955 13.019-1.024 12.997-1.979-.021-1.596-12.126 1.024-12.997ZM161.082 177.635h25.128a2.147 2.147 0 0 0 2.136-2.156v-.002a2.146 2.146 0 0 0-2.136-2.156h-25.128c-1.18 0-2.136.965-2.136 2.156v.002c0 1.19.956 2.156 2.136 2.156Z" fill="#1F1F1F" stroke="#1F1F1F" stroke-width=".806" stroke-linecap="round" stroke-linejoin="round"/><path d="m168.041 177.699-6.288-10.994 10.237-5.965 9.701 16.959h-13.65Z" fill="#fff" stroke="#1F1F1F" stroke-width=".806" stroke-linecap="round" stroke-linejoin="round"/><path d="m141.572 163.773 14.986-4.902c3.13-.804 5.558-.732 7.22.715s3.646 3.816 3.646 3.816l-1.229.716s-4.164-4.19-5.251-3.019c-1.087 1.172 3.543 4.023 3.543 4.023 1.004.685 1.025 2.038-.827 1.33-1.698-.651-5.943-2.086-5.943-2.086-1.949-.515-4.888.184-6.519 1.15-1.631.967-11.847 6.64-11.847 6.64s.016-7.448 2.221-8.383Z" fill="#C99069" stroke="#C99069" stroke-width=".806" stroke-linecap="round" stroke-linejoin="round"/><path d="M166.196 164.118s-4.164-4.191-5.251-3.019c-1.087 1.171 3.543 4.022 3.543 4.022 1.004.686 1.025 2.039-.826 1.33-1.699-.65-5.944-2.085-5.944-2.085" stroke="#1F1F1F" stroke-width=".806" stroke-linecap="round" stroke-linejoin="round"/><path d="M195.561 185.692h-42.564v21.876h42.564v-21.876Z" fill="#FFDF99" stroke="#FFDF99" stroke-width=".806" stroke-miterlimit="10"/><path d="M200.415 207.568h-53.088" stroke="#1F1F1F" stroke-width=".806" stroke-linecap="round" stroke-linejoin="round"/><path d="M92.269 178.715s4.403-13.197 11.696-13.197c7.292 0 17.361 13.197 17.361 13.197H92.269Z" fill="#fff" stroke="#1F1F1F" stroke-width=".806" stroke-linecap="round" stroke-linejoin="round"/><path d="M94.793 174.71a.96.96 0 0 0 .956-.965.96.96 0 0 0-.956-.965.96.96 0 0 0-.956.965.96.96 0 0 0 .956.965ZM98.018 174.71a.96.96 0 0 0 .956-.965.96.96 0 0 0-.956-.965.96.96 0 0 0-.956.965.96.96 0 0 0 .956.965ZM101.241 174.71a.96.96 0 0 0 .955-.965.96.96 0 0 0-.955-.965.96.96 0 0 0-.956.965.96.96 0 0 0 .956.965Z" fill="#FFBB29" stroke="#FFBB29" stroke-width=".806" stroke-linecap="round" stroke-linejoin="round"/><path d="M140.549 176.77c-1.979-.023-1.596-12.126 1.023-12.997l-24.798 7.762M152.997 185.692h42.566v10.314" stroke="#1F1F1F" stroke-width=".806" stroke-linecap="round" stroke-linejoin="round"/></svg>